<svg id="svg" version="1.1" xmlns="http://www.w3.org/2000/svg" xmlns:xlink="http://www.w3.org/1999/xlink" width="400" height="400" viewBox="0, 0, 400,400"><g id="svgg"><path id="path0" d="M324.128 13.484 C 324.470 14.037,326.000 14.428,326.000 13.963 C 326.000 13.763,325.835 13.600,325.633 13.600 C 325.431 13.600,324.951 13.479,324.567 13.332 C 324.128 13.164,323.965 13.220,324.128 13.484 M344.928 23.484 C 345.270 24.037,346.800 24.428,346.800 23.963 C 346.800 23.763,346.635 23.600,346.433 23.600 C 346.231 23.600,345.751 23.479,345.367 23.332 C 344.928 23.164,344.765 23.220,344.928 23.484 M357.600 29.591 C 357.600 29.765,357.960 30.001,358.400 30.116 C 358.840 30.231,359.200 30.183,359.200 30.009 C 359.200 29.835,358.840 29.599,358.400 29.484 C 357.960 29.369,357.600 29.417,357.600 29.591 M362.184 31.838 C 363.063 32.481,363.600 32.560,363.600 32.047 C 363.600 31.852,363.108 31.599,362.508 31.484 C 361.486 31.289,361.465 31.312,362.184 31.838 M378.128 39.484 C 378.470 40.037,380.000 40.428,380.000 39.963 C 380.000 39.763,379.835 39.600,379.633 39.600 C 379.431 39.600,378.951 39.479,378.567 39.332 C 378.128 39.164,377.965 39.220,378.128 39.484 M393.600 49.400 C 394.494 50.351,394.800 50.571,394.800 50.261 C 394.800 49.953,393.284 48.400,392.983 48.400 C 392.806 48.400,393.083 48.850,393.600 49.400 M395.277 51.500 C 395.608 51.885,396.000 52.541,396.149 52.957 C 396.297 53.374,396.522 53.611,396.648 53.485 C 396.952 53.182,395.535 50.800,395.052 50.800 C 394.845 50.800,394.947 51.115,395.277 51.500 M397.086 54.806 C 397.202 55.250,397.455 55.710,397.648 55.830 C 397.842 55.949,398.000 56.386,398.000 56.800 C 398.000 57.214,398.177 57.662,398.394 57.796 C 398.641 57.949,398.692 57.546,398.531 56.720 C 398.389 55.994,398.122 55.340,397.937 55.267 C 397.751 55.193,397.600 54.878,397.600 54.567 C 397.600 54.255,397.437 54.000,397.237 54.000 C 397.038 54.000,396.970 54.363,397.086 54.806 M398.966 60.100 C 399.066 60.595,399.256 61.630,399.388 62.400 C 399.520 63.170,399.503 89.405,399.350 120.700 L 399.071 177.600 349.936 177.600 L 300.800 177.600 300.800 174.880 C 300.800 173.384,300.623 171.983,300.406 171.766 C 300.170 171.530,299.960 166.405,299.882 158.986 C 299.811 152.174,299.808 182.690,299.876 226.800 C 299.944 270.910,300.106 324.249,300.236 345.331 C 300.415 374.446,300.358 383.966,299.997 384.931 C 297.120 392.614,292.155 396.335,284.640 396.439 L 281.800 396.479 283.472 396.939 C 284.392 397.193,285.277 397.535,285.439 397.700 C 285.601 397.865,286.233 398.000,286.843 398.000 C 287.453 398.000,288.063 398.179,288.199 398.398 C 288.502 398.889,296.723 398.848,297.029 398.353 C 297.149 398.159,297.766 398.000,298.400 398.000 C 299.034 398.000,299.654 397.836,299.778 397.635 C 299.903 397.434,300.723 397.148,301.602 397.000 C 302.481 396.851,303.200 396.608,303.200 396.459 C 303.200 396.310,303.965 395.864,304.900 395.468 C 305.835 395.071,307.095 394.535,307.700 394.276 C 308.305 394.017,308.800 393.669,308.800 393.502 C 308.800 393.336,308.977 393.200,309.192 393.200 C 309.591 393.200,315.729 390.430,317.662 389.378 C 318.246 389.060,319.011 388.800,319.362 388.800 C 319.713 388.800,320.000 388.662,320.000 388.494 C 320.000 388.173,322.920 386.800,323.603 386.800 C 323.821 386.800,324.000 386.664,324.000 386.498 C 324.000 386.331,324.585 385.940,325.300 385.629 C 326.015 385.318,327.709 384.554,329.065 383.931 C 330.420 383.309,331.725 382.800,331.965 382.800 C 332.204 382.800,332.400 382.641,332.400 382.447 C 332.400 382.120,333.661 381.546,334.600 381.443 C 334.820 381.420,335.090 381.301,335.200 381.179 C 335.496 380.853,338.143 379.656,338.555 379.663 C 338.751 379.666,339.021 379.509,339.155 379.313 C 339.512 378.796,347.861 374.800,348.585 374.800 C 348.923 374.800,349.201 374.665,349.203 374.500 C 349.208 374.068,351.248 373.182,351.656 373.435 C 351.845 373.552,352.000 373.457,352.000 373.224 C 352.000 372.991,352.270 372.800,352.600 372.800 C 352.930 372.800,353.200 372.620,353.200 372.400 C 353.200 372.180,353.560 372.000,354.000 372.000 C 354.440 372.000,354.800 371.820,354.800 371.600 C 354.800 371.380,355.010 371.200,355.266 371.200 C 355.523 371.200,357.548 370.320,359.766 369.245 C 365.928 366.260,367.772 365.435,368.100 365.521 C 368.265 365.565,368.400 365.420,368.400 365.200 C 368.400 364.980,368.760 364.800,369.200 364.800 C 369.640 364.800,370.000 364.620,370.000 364.400 C 370.000 364.180,370.179 364.000,370.397 364.000 C 371.080 364.000,374.000 362.627,374.000 362.306 C 374.000 362.138,374.269 362.000,374.599 362.000 C 374.928 362.000,376.549 361.280,378.200 360.400 C 379.851 359.520,381.472 358.800,381.801 358.800 C 382.131 358.800,382.400 358.640,382.400 358.443 C 382.400 358.095,384.303 357.404,384.900 357.534 C 385.065 357.570,385.200 357.420,385.200 357.200 C 385.200 356.980,385.389 356.800,385.619 356.800 C 387.078 356.800,393.583 351.353,395.320 348.677 C 396.568 346.754,398.000 343.902,398.000 343.340 C 398.000 343.043,398.180 342.800,398.400 342.800 C 398.620 342.800,398.800 342.260,398.800 341.600 C 398.800 340.940,398.967 340.400,399.172 340.400 C 399.706 340.400,399.662 349.253,399.860 202.200 C 400.035 71.742,399.974 59.200,399.155 59.200 C 398.951 59.200,398.866 59.605,398.966 60.100 " stroke="none" fill="#2fa7f3" fill-rule="evenodd"></path><path id="path1" d="M295.000 0.800 C 295.136 1.020,295.607 1.200,296.047 1.200 C 296.487 1.200,296.736 1.020,296.600 0.800 C 296.464 0.580,295.993 0.400,295.553 0.400 C 295.113 0.400,294.864 0.580,295.000 0.800 M394.800 49.829 C 394.800 49.954,395.070 50.327,395.400 50.657 C 396.051 51.308,396.133 51.211,395.757 50.233 C 395.529 49.638,394.800 49.330,394.800 49.829 M398.800 57.800 C 398.800 58.130,398.980 58.400,399.200 58.400 C 399.420 58.400,399.600 58.130,399.600 57.800 C 399.600 57.470,399.420 57.200,399.200 57.200 C 398.980 57.200,398.800 57.470,398.800 57.800 M299.297 65.300 C 299.205 71.301,299.162 71.600,298.400 71.600 C 297.672 71.600,297.600 71.867,297.600 74.573 C 297.600 77.520,297.590 77.548,296.500 77.673 C 295.410 77.799,295.399 77.830,295.284 81.100 C 295.171 84.307,295.140 84.400,294.184 84.400 C 293.227 84.400,293.200 84.481,293.200 87.376 C 293.200 89.013,293.020 90.464,292.800 90.600 C 292.580 90.736,292.400 92.266,292.400 94.000 C 292.400 95.734,292.220 97.264,292.000 97.400 C 291.780 97.536,291.600 98.897,291.600 100.424 L 291.600 103.200 290.400 103.200 L 289.200 103.200 289.200 106.200 C 289.200 109.133,289.178 109.200,288.200 109.200 C 287.217 109.200,287.200 109.253,287.200 112.400 C 287.200 114.869,287.073 115.600,286.643 115.600 C 285.982 115.600,285.600 116.458,285.600 117.944 C 285.600 118.890,284.454 120.400,283.736 120.400 C 283.596 120.400,282.869 121.030,282.121 121.800 C 281.373 122.570,280.684 123.200,280.589 123.200 C 280.446 123.200,276.075 126.609,272.982 129.133 C 272.533 129.500,271.273 130.425,270.182 131.188 C 269.092 131.952,267.840 132.909,267.400 133.315 C 266.960 133.721,265.970 134.437,265.200 134.905 C 264.430 135.374,263.710 135.857,263.600 135.979 C 262.916 136.735,255.176 142.400,254.827 142.400 C 254.592 142.400,254.400 142.545,254.400 142.721 C 254.400 142.898,253.329 143.798,252.020 144.721 L 249.639 146.400 200.020 146.400 C 167.207 146.400,150.400 146.265,150.400 146.000 C 150.400 145.780,150.065 145.600,149.656 145.600 C 149.247 145.600,148.574 145.150,148.161 144.600 C 147.748 144.050,147.191 143.600,146.923 143.600 C 146.655 143.600,146.008 143.172,145.484 142.648 C 144.961 142.124,144.142 141.572,143.666 141.421 C 143.190 141.270,142.800 140.978,142.800 140.773 C 142.800 140.568,142.080 140.400,141.200 140.400 C 140.320 140.400,139.600 140.220,139.600 140.000 C 139.600 139.780,139.338 139.600,139.018 139.600 C 138.698 139.600,138.008 139.172,137.484 138.648 C 136.574 137.738,134.937 136.953,134.300 137.121 C 133.824 137.246,133.948 136.909,134.629 136.229 C 134.974 135.883,135.085 135.600,134.874 135.600 C 134.460 135.600,130.368 139.247,128.949 140.881 C 128.701 141.166,127.987 141.760,127.363 142.200 C 126.739 142.640,124.945 144.260,123.377 145.800 C 121.810 147.340,120.028 148.960,119.419 149.400 C 118.810 149.840,118.031 150.468,117.688 150.796 C 117.219 151.245,117.023 151.270,116.899 150.896 C 116.808 150.623,116.560 150.400,116.349 150.400 C 116.138 150.400,115.490 149.960,114.910 149.421 C 114.329 148.883,113.696 148.541,113.502 148.661 C 113.308 148.781,113.926 149.442,114.875 150.131 C 115.824 150.821,116.794 151.568,117.032 151.792 C 117.269 152.016,120.307 154.360,123.783 157.000 C 127.259 159.640,132.105 163.338,134.551 165.218 C 136.998 167.098,141.598 170.608,144.772 173.018 C 151.529 178.147,155.020 180.801,164.000 187.635 C 167.630 190.397,172.940 194.407,175.800 196.545 C 178.660 198.684,181.217 200.606,181.483 200.817 C 181.749 201.027,182.147 201.200,182.367 201.200 C 182.587 201.200,183.219 201.686,183.770 202.281 C 184.321 202.875,184.898 203.235,185.053 203.081 C 185.207 202.926,185.123 202.800,184.867 202.800 C 184.610 202.800,184.400 202.571,184.400 202.291 C 184.400 202.011,183.770 201.443,183.000 201.028 C 181.279 200.101,181.273 199.964,182.900 199.013 C 183.615 198.596,184.435 197.927,184.723 197.527 C 185.010 197.127,185.480 196.800,185.767 196.800 C 186.053 196.800,186.626 196.350,187.039 195.800 C 187.452 195.250,187.995 194.800,188.245 194.800 C 188.675 194.800,189.664 194.031,192.490 191.500 C 193.166 190.895,193.896 190.400,194.112 190.400 C 194.329 190.400,194.797 190.080,195.153 189.690 C 195.509 189.299,196.340 188.641,197.000 188.227 C 197.660 187.813,198.344 187.232,198.520 186.937 C 198.696 186.642,199.068 186.400,199.348 186.400 C 199.627 186.400,200.236 185.995,200.700 185.500 C 201.914 184.206,202.706 183.600,203.183 183.600 C 203.412 183.600,203.600 183.459,203.600 183.286 C 203.600 183.114,204.095 182.674,204.700 182.309 C 205.305 181.944,206.287 181.185,206.883 180.623 C 207.478 180.060,208.076 179.600,208.211 179.600 C 208.346 179.600,208.694 179.375,208.984 179.100 C 209.274 178.825,210.018 178.240,210.638 177.800 C 211.258 177.360,212.088 176.685,212.483 176.300 C 212.877 175.915,213.481 175.600,213.824 175.600 C 214.167 175.600,214.344 175.433,214.218 175.229 C 214.092 175.025,214.351 174.743,214.794 174.602 C 215.237 174.461,215.600 174.178,215.600 173.973 C 215.600 173.768,215.793 173.600,216.029 173.600 C 216.264 173.600,216.708 173.375,217.015 173.100 C 218.248 171.994,218.779 171.600,219.036 171.600 C 219.184 171.600,219.900 170.970,220.626 170.200 C 221.352 169.430,222.110 168.800,222.311 168.800 C 222.511 168.800,223.199 168.349,223.838 167.798 C 224.477 167.246,225.306 166.697,225.680 166.577 C 226.053 166.457,226.470 166.008,226.606 165.580 C 226.743 165.151,227.084 164.800,227.365 164.800 C 227.646 164.800,228.399 164.350,229.038 163.800 C 229.677 163.251,230.316 162.801,230.458 162.800 C 230.599 162.800,231.293 162.260,232.000 161.600 C 232.707 160.940,233.523 160.400,233.815 160.400 C 234.107 160.400,234.460 160.040,234.600 159.600 C 234.740 159.160,235.177 158.800,235.571 158.800 C 235.965 158.800,236.626 158.350,237.039 157.800 C 237.452 157.250,238.016 156.800,238.291 156.800 C 238.567 156.800,239.309 156.260,239.940 155.600 C 240.571 154.940,241.370 154.400,241.716 154.400 C 242.063 154.400,242.457 154.049,242.594 153.620 C 242.730 153.192,243.221 152.720,243.687 152.573 C 244.152 152.425,244.961 151.876,245.484 151.352 C 246.008 150.828,246.616 150.400,246.836 150.400 C 247.056 150.400,247.648 149.995,248.150 149.500 C 249.613 148.059,251.725 146.400,252.095 146.400 C 252.283 146.400,252.886 145.950,253.436 145.400 C 253.986 144.850,254.568 144.400,254.729 144.400 C 254.890 144.400,255.579 143.905,256.261 143.300 C 258.014 141.743,258.830 141.109,260.200 140.235 C 260.860 139.815,261.796 139.050,262.281 138.535 C 262.765 138.021,263.359 137.600,263.600 137.600 C 263.841 137.600,264.455 137.150,264.965 136.600 C 265.475 136.050,266.019 135.600,266.174 135.600 C 266.330 135.600,266.708 135.375,267.015 135.100 C 268.249 133.993,268.779 133.600,269.037 133.600 C 269.186 133.600,269.725 133.150,270.235 132.600 C 270.745 132.050,271.273 131.600,271.409 131.600 C 271.546 131.600,271.908 131.375,272.215 131.100 C 273.426 130.014,273.977 129.600,274.212 129.600 C 274.347 129.600,274.694 129.375,274.984 129.100 C 275.274 128.825,276.018 128.240,276.638 127.800 C 277.258 127.360,278.088 126.685,278.483 126.300 C 278.877 125.915,279.298 125.600,279.417 125.600 C 279.536 125.600,279.851 125.416,280.117 125.192 C 282.130 123.492,283.033 122.801,283.241 122.800 C 283.373 122.800,284.034 122.305,284.710 121.700 C 286.349 120.232,286.809 119.873,288.210 118.968 C 289.519 118.123,290.269 117.547,292.210 115.900 C 292.923 115.295,293.698 114.800,293.933 114.800 C 294.168 114.800,294.504 114.558,294.680 114.263 C 294.856 113.968,295.540 113.385,296.200 112.968 C 296.860 112.551,297.634 111.987,297.920 111.714 C 298.206 111.441,298.702 111.071,299.023 110.891 C 299.526 110.610,299.591 107.031,299.500 84.782 C 299.442 70.602,299.350 61.835,299.297 65.300 M216.486 60.654 C 215.983 61.174,215.730 61.600,215.924 61.600 C 216.348 61.600,217.797 60.055,217.564 59.851 C 217.474 59.772,216.989 60.133,216.486 60.654 M185.970 88.668 L 185.000 89.736 186.087 88.968 C 186.686 88.546,187.181 88.065,187.187 87.900 C 187.208 87.407,186.989 87.546,185.970 88.668 M42.400 96.800 C 42.400 97.020,42.670 97.200,43.000 97.200 C 43.330 97.200,43.600 97.020,43.600 96.800 C 43.600 96.580,43.330 96.400,43.000 96.400 C 42.670 96.400,42.400 96.580,42.400 96.800 M48.000 99.200 C 50.739 101.341,52.400 102.408,52.400 102.025 C 52.400 101.791,52.257 101.600,52.081 101.600 C 51.767 101.600,51.012 101.070,48.806 99.300 C 48.189 98.805,47.530 98.404,47.342 98.409 C 47.154 98.414,47.450 98.770,48.000 99.200 M52.800 102.773 C 52.800 102.978,53.160 103.260,53.600 103.400 C 54.040 103.540,54.400 103.822,54.400 104.027 C 54.400 104.232,54.623 104.400,54.896 104.400 C 55.169 104.400,54.907 103.950,54.313 103.400 C 53.158 102.329,52.800 102.180,52.800 102.773 M55.600 104.580 C 55.600 104.865,57.133 106.400,57.417 106.400 C 57.537 106.400,58.120 106.850,58.713 107.400 C 59.858 108.461,60.400 108.654,60.400 108.000 C 60.400 107.780,60.233 107.600,60.029 107.600 C 59.824 107.600,59.419 107.375,59.129 107.100 C 58.163 106.186,55.600 104.356,55.600 104.580 M17.027 109.541 L 16.255 110.600 17.227 109.804 C 17.762 109.367,18.257 108.980,18.327 108.944 C 18.396 108.909,18.306 108.791,18.127 108.681 C 17.947 108.572,17.452 108.959,17.027 109.541 M60.813 108.691 C 60.831 109.144,62.800 110.505,62.800 110.065 C 62.800 109.860,62.350 109.397,61.800 109.037 C 61.250 108.676,60.806 108.521,60.813 108.691 M163.256 109.234 C 162.736 109.655,162.466 109.994,162.656 109.987 C 163.144 109.969,164.576 108.843,164.371 108.639 C 164.277 108.545,163.775 108.813,163.256 109.234 M63.200 110.800 C 63.200 111.020,63.367 111.200,63.571 111.200 C 63.776 111.200,64.181 111.425,64.471 111.700 C 64.762 111.975,65.720 112.730,66.600 113.379 C 67.480 114.027,68.325 114.742,68.478 114.967 C 68.631 115.193,68.869 115.265,69.006 115.127 C 69.143 114.990,68.598 114.366,67.796 113.739 C 66.993 113.113,65.766 112.108,65.068 111.506 C 63.723 110.346,63.200 110.148,63.200 110.800 M10.693 115.156 C 9.872 115.982,9.200 116.787,9.200 116.945 C 9.200 117.102,9.942 116.496,10.849 115.598 C 11.756 114.700,12.428 113.895,12.343 113.809 C 12.257 113.724,11.515 114.330,10.693 115.156 M70.281 116.187 C 70.677 116.731,71.182 117.181,71.404 117.187 C 71.626 117.194,72.293 117.650,72.887 118.200 C 73.480 118.750,74.098 119.200,74.261 119.200 C 74.423 119.200,75.061 119.684,75.678 120.275 C 76.295 120.866,76.800 121.149,76.800 120.903 C 76.800 120.403,75.703 119.200,75.247 119.200 C 75.084 119.200,74.602 118.884,74.175 118.497 C 73.749 118.110,72.860 117.452,72.200 117.034 C 71.540 116.616,70.856 116.032,70.680 115.737 C 70.504 115.442,70.181 115.200,69.961 115.200 C 69.742 115.200,69.886 115.644,70.281 116.187 M4.629 120.629 C 3.849 121.409,3.830 121.640,4.569 121.357 C 4.882 121.236,5.236 120.882,5.357 120.569 C 5.640 119.830,5.409 119.849,4.629 120.629 M77.600 121.382 C 77.600 121.690,79.617 123.600,79.943 123.600 C 80.111 123.600,80.655 123.978,81.151 124.440 C 81.647 124.902,82.160 125.173,82.291 125.043 C 82.558 124.775,80.874 123.200,80.321 123.200 C 80.124 123.200,79.514 122.750,78.964 122.200 C 78.001 121.237,77.600 120.997,77.600 121.382 M149.000 122.400 C 148.602 122.840,148.394 123.200,148.538 123.200 C 148.682 123.200,149.160 122.840,149.600 122.400 C 150.040 121.960,150.248 121.600,150.062 121.600 C 149.876 121.600,149.398 121.960,149.000 122.400 M146.834 124.553 L 145.869 125.800 147.013 124.712 C 147.643 124.114,148.077 123.553,147.979 123.465 C 147.880 123.377,147.365 123.867,146.834 124.553 M84.034 126.473 C 85.769 128.078,86.629 128.760,88.190 129.768 C 89.591 130.673,90.051 131.032,91.690 132.500 C 92.366 133.105,93.099 133.600,93.319 133.600 C 93.678 133.600,93.243 133.164,90.114 130.386 C 89.627 129.954,89.061 129.600,88.857 129.600 C 88.652 129.600,87.907 129.060,87.200 128.400 C 86.493 127.740,85.684 127.200,85.400 127.200 C 85.117 127.200,84.787 126.942,84.665 126.626 C 84.544 126.311,84.030 125.848,83.523 125.599 C 82.886 125.286,83.044 125.557,84.034 126.473 M94.000 133.829 C 94.000 134.190,94.823 134.910,97.400 136.802 C 98.720 137.771,100.248 138.977,100.796 139.482 C 101.344 139.987,102.004 140.400,102.263 140.400 C 102.521 140.400,102.793 140.542,102.867 140.717 C 102.940 140.891,103.720 141.565,104.600 142.214 C 105.480 142.864,106.344 143.621,106.520 143.898 C 106.696 144.174,107.019 144.400,107.238 144.400 C 107.457 144.400,108.086 144.850,108.636 145.400 C 109.186 145.950,109.763 146.400,109.918 146.400 C 110.073 146.401,110.723 146.851,111.362 147.400 C 112.877 148.703,113.719 148.703,112.313 147.400 C 111.720 146.850,111.124 146.400,110.989 146.400 C 110.854 146.400,110.506 146.175,110.216 145.900 C 109.926 145.625,109.185 145.040,108.570 144.600 C 107.954 144.160,107.008 143.395,106.467 142.900 C 105.926 142.405,105.363 142.000,105.217 142.000 C 105.071 142.000,104.597 141.671,104.165 141.268 C 103.733 140.865,102.844 140.190,102.190 139.768 C 100.819 138.883,99.993 138.238,98.261 136.700 C 97.579 136.095,96.890 135.600,96.729 135.600 C 96.568 135.600,95.986 135.150,95.436 134.600 C 94.455 133.619,94.000 133.374,94.000 133.829 M3.200 144.525 C 3.200 144.594,3.740 145.168,4.400 145.800 C 5.855 147.194,6.017 146.854,4.582 145.418 C 3.652 144.488,3.200 144.196,3.200 144.525 M10.700 151.034 C 10.458 151.276,12.952 154.000,13.416 154.000 C 13.881 154.000,13.021 152.797,12.420 152.606 C 12.032 152.483,11.550 152.015,11.350 151.565 C 11.149 151.116,10.857 150.877,10.700 151.034 M17.455 157.800 C 17.582 158.130,17.839 158.400,18.027 158.400 C 18.214 158.400,18.825 158.893,19.384 159.496 C 19.943 160.099,20.400 160.435,20.400 160.243 C 20.400 159.910,17.714 157.200,17.384 157.200 C 17.297 157.200,17.329 157.470,17.455 157.800 M24.400 163.757 C 24.400 164.126,28.508 168.000,28.899 168.000 C 29.064 168.000,28.513 167.325,27.673 166.500 C 25.452 164.319,24.400 163.438,24.400 163.757 M32.400 171.053 C 32.400 171.319,35.143 174.000,35.416 174.000 C 35.897 174.000,35.010 172.794,34.384 172.595 C 33.975 172.465,33.530 172.008,33.394 171.580 C 33.167 170.866,32.400 170.460,32.400 171.053 M41.200 179.130 C 41.200 179.316,41.740 179.949,42.400 180.537 C 43.060 181.125,43.600 181.489,43.600 181.346 C 43.600 181.204,43.060 180.571,42.400 179.940 C 41.740 179.309,41.200 178.945,41.200 179.130 M47.600 185.013 C 47.600 185.224,49.048 186.679,50.734 188.162 C 52.289 189.531,51.644 188.507,49.768 186.632 C 47.995 184.859,47.600 184.564,47.600 185.013 M56.400 193.017 C 56.400 193.271,57.500 194.394,58.500 195.161 C 58.918 195.482,59.200 195.528,59.200 195.276 C 59.200 195.044,58.849 194.743,58.420 194.606 C 57.992 194.470,57.530 194.008,57.394 193.580 C 57.175 192.890,56.400 192.451,56.400 193.017 M63.391 199.468 C 63.544 200.017,63.400 200.533,62.998 200.868 C 62.648 201.161,62.145 201.631,61.881 201.914 C 61.616 202.197,61.195 202.647,60.944 202.914 C 60.694 203.181,59.988 203.760,59.375 204.200 C 58.763 204.640,56.777 206.440,54.962 208.200 C 53.146 209.960,51.075 211.850,50.359 212.400 C 49.643 212.950,48.044 214.390,46.806 215.600 C 45.568 216.810,43.603 218.610,42.439 219.600 C 39.552 222.056,39.200 222.404,39.200 222.802 C 39.200 222.991,38.849 223.257,38.420 223.394 C 37.992 223.530,37.533 223.983,37.400 224.400 C 37.267 224.817,36.829 225.264,36.427 225.392 C 36.024 225.519,33.950 227.329,31.819 229.412 C 29.687 231.495,27.808 233.200,27.642 233.200 C 27.477 233.200,25.881 234.640,24.098 236.400 C 22.314 238.160,20.707 239.601,20.527 239.602 C 20.347 239.603,19.351 240.458,18.314 241.502 C 17.276 242.546,16.196 243.616,15.914 243.881 C 15.631 244.145,15.197 244.595,14.949 244.881 C 14.701 245.166,13.987 245.760,13.363 246.200 C 12.739 246.640,10.937 248.260,9.358 249.800 C 7.780 251.340,5.749 253.202,4.844 253.937 C 3.940 254.673,3.200 255.462,3.200 255.690 C 3.200 255.919,2.866 256.397,2.457 256.753 C 2.049 257.109,1.574 257.850,1.403 258.400 C 1.232 258.950,0.891 259.528,0.646 259.685 C 0.008 260.094,0.029 273.123,0.668 273.519 C 0.926 273.678,1.261 274.305,1.414 274.913 C 1.567 275.521,2.002 276.239,2.382 276.509 C 2.762 276.779,3.288 277.405,3.551 277.900 C 3.813 278.395,4.280 278.800,4.587 278.800 C 4.895 278.800,5.257 279.151,5.394 279.580 C 5.530 280.008,5.992 280.470,6.420 280.606 C 6.849 280.743,7.200 281.009,7.200 281.198 C 7.200 281.600,7.576 281.974,10.418 284.400 C 11.578 285.390,13.843 287.460,15.452 289.000 C 18.753 292.159,19.480 292.800,19.766 292.800 C 19.875 292.800,21.516 294.330,23.412 296.200 C 25.307 298.070,26.948 299.600,27.057 299.600 C 27.167 299.600,27.508 299.825,27.815 300.100 C 29.138 301.287,29.591 301.600,29.983 301.600 C 30.212 301.600,30.400 301.778,30.400 301.995 C 30.400 302.213,31.120 302.506,32.000 302.646 C 32.880 302.787,33.600 303.059,33.600 303.251 C 33.600 303.717,43.090 303.702,43.378 303.235 C 43.503 303.034,44.323 302.748,45.202 302.600 C 46.081 302.451,46.800 302.194,46.800 302.028 C 46.800 301.862,47.430 301.387,48.200 300.972 C 48.970 300.557,49.600 300.079,49.600 299.909 C 49.600 299.739,49.793 299.600,50.029 299.600 C 50.264 299.600,50.694 299.375,50.984 299.100 C 51.274 298.825,52.022 298.240,52.645 297.800 C 53.269 297.360,54.273 296.505,54.876 295.900 C 55.479 295.295,56.151 294.800,56.368 294.800 C 56.586 294.800,57.192 294.372,57.716 293.848 C 58.239 293.324,59.048 292.775,59.513 292.627 C 59.979 292.480,60.470 292.008,60.606 291.580 C 60.743 291.151,61.177 290.800,61.571 290.800 C 61.965 290.800,62.626 290.350,63.039 289.800 C 63.452 289.250,64.009 288.800,64.277 288.800 C 64.545 288.800,65.214 288.350,65.764 287.800 C 66.314 287.250,66.939 286.800,67.153 286.800 C 67.367 286.800,67.870 286.385,68.271 285.879 C 68.672 285.372,69.585 284.613,70.300 284.193 C 71.015 283.772,71.600 283.286,71.600 283.114 C 71.600 282.941,71.840 282.800,72.133 282.800 C 72.427 282.800,73.192 282.265,73.833 281.611 C 74.475 280.957,75.193 280.417,75.428 280.411 C 75.663 280.405,76.247 279.950,76.725 279.400 C 77.203 278.850,77.778 278.400,78.001 278.400 C 78.224 278.400,78.969 277.864,79.655 277.208 C 80.341 276.552,81.024 276.092,81.174 276.184 C 81.324 276.276,81.776 275.913,82.179 275.376 C 82.582 274.839,83.124 274.400,83.384 274.400 C 83.643 274.400,84.236 273.995,84.700 273.500 C 85.794 272.334,86.697 271.600,87.037 271.600 C 87.186 271.600,87.725 271.150,88.235 270.600 C 88.745 270.050,89.272 269.600,89.408 269.600 C 89.543 269.600,90.316 269.105,91.127 268.500 C 92.560 267.430,92.927 267.140,94.169 266.100 C 94.498 265.825,94.872 265.600,95.001 265.600 C 95.129 265.600,95.720 265.150,96.313 264.600 C 96.907 264.050,97.529 263.600,97.696 263.600 C 97.863 263.600,98.323 263.285,98.717 262.900 C 99.112 262.515,99.942 261.840,100.562 261.400 C 101.182 260.960,101.926 260.375,102.216 260.100 C 102.506 259.825,102.936 259.600,103.171 259.600 C 103.407 259.600,103.604 259.465,103.609 259.300 C 103.614 259.135,104.510 258.370,105.600 257.600 C 106.690 256.830,107.586 256.065,107.591 255.900 C 107.596 255.735,107.793 255.600,108.029 255.600 C 108.264 255.600,108.708 255.375,109.015 255.100 C 110.249 253.993,110.779 253.600,111.037 253.600 C 111.186 253.600,111.725 253.150,112.235 252.600 C 112.745 252.050,113.307 251.600,113.485 251.600 C 113.663 251.600,114.293 251.150,114.887 250.600 C 115.480 250.050,116.138 249.600,116.349 249.600 C 116.560 249.600,116.825 249.375,116.936 249.100 C 117.068 248.776,117.255 248.741,117.470 249.000 C 118.098 249.760,119.600 250.923,119.600 250.649 C 119.600 249.884,110.883 241.685,90.400 223.185 C 87.870 220.900,82.730 216.233,78.977 212.815 C 66.666 201.600,65.104 200.204,64.448 199.834 C 64.092 199.633,63.653 199.273,63.474 199.034 C 63.292 198.792,63.255 198.985,63.391 199.468 M185.600 203.511 C 185.600 203.885,187.086 205.200,187.509 205.200 C 187.673 205.200,188.313 205.668,188.930 206.240 C 189.547 206.813,190.152 207.181,190.274 207.060 C 190.549 206.785,189.770 206.024,188.200 205.032 C 187.540 204.615,186.856 204.032,186.680 203.737 C 186.335 203.157,185.600 203.003,185.600 203.511 M190.813 207.500 C 190.832 207.959,192.800 209.293,192.800 208.847 C 192.800 208.633,192.517 208.174,192.171 207.829 C 191.510 207.167,190.791 206.993,190.813 207.500 M193.600 209.339 C 193.600 209.762,195.247 211.287,195.467 211.067 C 195.611 210.923,195.312 210.444,194.803 210.003 C 193.902 209.221,193.600 209.055,193.600 209.339 M197.241 212.395 C 200.449 215.216,200.938 215.600,201.318 215.600 C 201.698 215.600,200.867 214.778,197.981 212.300 C 197.276 211.695,196.515 211.200,196.290 211.200 C 196.065 211.200,196.493 211.738,197.241 212.395 M202.451 216.300 C 203.108 217.137,203.685 217.586,204.118 217.594 C 204.293 217.597,203.986 217.150,203.436 216.600 C 202.292 215.456,201.631 215.254,202.451 216.300 M204.800 217.850 C 204.800 218.096,206.389 219.600,206.649 219.600 C 206.718 219.600,206.687 219.371,206.580 219.091 C 206.365 218.531,204.800 217.439,204.800 217.850 M207.651 220.298 C 208.655 221.575,209.103 221.964,209.320 221.747 C 209.592 221.474,207.985 219.600,207.479 219.600 C 207.272 219.600,207.349 219.914,207.651 220.298 M210.000 221.780 C 210.000 222.165,210.785 222.875,212.200 223.768 C 212.860 224.185,213.544 224.768,213.720 225.063 C 214.152 225.788,214.832 225.749,214.550 225.015 C 214.427 224.694,214.014 224.332,213.634 224.211 C 213.253 224.090,212.592 223.678,212.165 223.295 C 210.740 222.017,210.000 221.500,210.000 221.780 M215.200 225.769 C 215.200 226.156,217.199 228.098,217.206 227.718 C 217.209 227.543,217.380 227.665,217.584 227.988 C 217.789 228.312,218.101 228.422,218.278 228.234 C 218.455 228.045,218.372 227.809,218.093 227.710 C 217.814 227.610,217.363 227.320,217.091 227.064 C 216.075 226.110,215.200 225.511,215.200 225.769 M218.800 228.636 C 218.800 228.986,220.538 230.371,220.996 230.387 C 221.214 230.394,220.907 229.950,220.313 229.400 C 219.242 228.407,218.800 228.184,218.800 228.636 M221.600 230.718 C 221.600 231.129,222.921 232.400,223.349 232.400 C 223.506 232.400,224.120 232.850,224.713 233.400 C 225.858 234.461,226.400 234.654,226.400 234.000 C 226.400 233.780,226.233 233.600,226.029 233.600 C 225.824 233.600,225.419 233.375,225.129 233.100 C 223.906 231.943,221.600 230.387,221.600 230.718 M226.813 234.700 C 226.830 235.118,228.800 236.513,228.800 236.108 C 228.800 235.771,227.351 234.400,226.995 234.400 C 226.888 234.400,226.806 234.535,226.813 234.700 M229.400 236.799 C 229.264 237.020,229.439 237.200,229.789 237.200 C 230.139 237.200,230.529 237.470,230.655 237.800 C 230.890 238.412,231.610 238.644,231.587 238.100 C 231.563 237.524,229.654 236.389,229.400 236.799 M232.000 238.654 C 232.000 238.948,233.724 240.370,234.100 240.387 C 234.786 240.417,234.314 239.754,233.197 239.119 C 232.539 238.744,232.000 238.535,232.000 238.654 M235.600 241.339 C 235.600 241.737,237.163 243.200,237.589 243.200 C 237.862 243.200,237.662 242.755,237.142 242.207 C 236.311 241.331,235.600 240.931,235.600 241.339 M238.400 243.351 C 238.400 243.683,239.940 245.200,240.277 245.200 C 240.488 245.200,241.083 245.650,241.600 246.200 C 242.698 247.369,243.413 247.531,242.744 246.459 C 242.489 246.051,241.678 245.393,240.941 244.996 C 240.203 244.599,239.600 244.142,239.600 243.980 C 239.600 243.818,239.330 243.582,239.000 243.455 C 238.670 243.329,238.400 243.282,238.400 243.351 M244.281 248.187 C 244.965 249.127,245.600 249.493,245.600 248.947 C 245.600 248.686,244.001 247.200,243.720 247.200 C 243.634 247.200,243.886 247.644,244.281 248.187 M246.930 250.240 C 247.547 250.813,248.159 251.174,248.290 251.043 C 248.579 250.754,246.853 249.200,246.243 249.200 C 246.004 249.200,246.313 249.668,246.930 250.240 M249.600 252.200 C 250.117 252.750,250.598 253.200,250.670 253.200 C 251.024 253.200,250.728 252.385,250.171 251.829 C 249.123 250.780,248.591 251.126,249.600 252.200 M252.261 254.224 C 252.824 254.788,253.385 255.149,253.507 255.027 C 253.752 254.781,252.065 253.200,251.557 253.200 C 251.381 253.200,251.697 253.661,252.261 254.224 M123.200 253.828 C 123.200 254.253,126.831 257.703,127.048 257.485 C 127.158 257.375,126.606 256.681,125.822 255.943 C 123.696 253.942,123.200 253.542,123.200 253.828 M254.800 255.912 C 254.800 256.083,255.191 256.488,255.670 256.812 C 256.148 257.135,257.075 257.895,257.729 258.500 C 258.383 259.105,259.099 259.600,259.319 259.600 C 259.678 259.600,259.243 259.164,256.114 256.386 C 255.167 255.545,254.800 255.413,254.800 255.912 M260.000 259.853 C 260.000 260.213,261.652 261.600,262.079 261.600 C 262.276 261.600,261.986 261.150,261.436 260.600 C 260.439 259.602,260.000 259.374,260.000 259.853 M131.242 261.333 C 131.510 261.920,131.872 262.400,132.048 262.400 C 132.224 262.400,132.825 262.893,133.384 263.496 C 133.943 264.099,134.400 264.450,134.400 264.277 C 134.400 264.104,133.580 263.131,132.578 262.114 C 131.133 260.648,130.857 260.486,131.242 261.333 M262.800 261.850 C 262.800 262.096,264.389 263.600,264.649 263.600 C 264.718 263.600,264.687 263.371,264.580 263.091 C 264.365 262.531,262.800 261.439,262.800 261.850 M265.600 264.200 C 266.295 265.127,266.864 265.585,267.329 265.594 C 267.686 265.601,267.058 264.947,265.798 264.000 C 265.038 263.429,265.029 263.438,265.600 264.200 M268.000 265.769 C 268.000 266.162,270.126 268.221,270.382 268.076 C 270.502 268.007,270.960 268.294,271.400 268.714 C 271.840 269.133,272.650 269.706,273.200 269.988 C 273.993 270.393,273.915 270.240,272.828 269.250 C 272.073 268.562,271.342 268.000,271.203 268.000 C 271.064 268.000,270.600 267.685,270.170 267.300 C 268.754 266.030,268.000 265.498,268.000 265.769 M138.653 267.881 C 138.541 267.993,139.282 268.871,140.300 269.833 C 142.707 272.107,142.997 271.818,140.656 269.477 C 139.666 268.487,138.765 267.769,138.653 267.881 M274.202 270.797 C 274.065 271.019,274.131 271.200,274.348 271.200 C 274.565 271.200,275.034 271.491,275.390 271.848 C 275.747 272.204,276.165 272.359,276.319 272.193 C 276.474 272.027,276.372 271.809,276.093 271.710 C 275.814 271.610,275.330 271.273,275.018 270.961 C 274.663 270.606,274.358 270.544,274.202 270.797 M276.800 272.653 C 276.800 273.047,278.471 274.400,278.957 274.400 C 279.196 274.400,278.907 273.950,278.313 273.400 C 277.230 272.396,276.800 272.183,276.800 272.653 M147.124 275.963 C 148.291 277.084,149.321 278.000,149.411 278.000 C 149.895 278.000,149.014 276.795,148.384 276.595 C 147.975 276.465,147.538 276.036,147.413 275.640 C 147.287 275.245,146.693 274.698,146.092 274.424 C 145.277 274.053,145.538 274.443,147.124 275.963 M279.462 274.671 C 279.333 274.800,279.654 275.242,280.177 275.653 C 281.191 276.451,281.608 276.583,281.587 276.100 C 281.568 275.641,279.729 274.404,279.462 274.671 M282.000 276.712 C 282.000 276.883,282.377 277.288,282.837 277.612 C 283.298 277.935,284.153 278.618,284.737 279.129 C 285.322 279.639,286.424 280.539,287.187 281.129 C 287.950 281.718,288.866 282.470,289.224 282.800 C 289.582 283.130,290.578 283.965,291.439 284.656 C 292.299 285.347,293.713 286.562,294.580 287.356 C 295.447 288.150,296.371 288.800,296.633 288.800 C 297.389 288.800,297.409 289.676,297.263 315.677 L 297.124 340.354 296.262 340.477 C 295.403 340.600,295.400 340.649,295.294 352.900 L 295.188 365.200 294.194 365.200 L 293.200 365.200 293.200 373.800 C 293.200 379.267,293.054 382.400,292.800 382.400 C 292.559 382.400,292.400 384.067,292.400 386.600 C 292.400 389.133,292.241 390.800,292.000 390.800 C 291.780 390.800,291.600 391.430,291.600 392.200 C 291.600 392.970,291.714 393.600,291.853 393.600 C 292.876 393.600,297.200 389.766,297.200 388.860 C 297.200 388.661,297.470 388.274,297.800 388.000 C 298.130 387.726,298.400 387.179,298.400 386.784 C 298.400 386.390,298.625 385.992,298.900 385.900 C 299.471 385.710,299.883 289.200,299.312 289.200 C 299.141 289.199,298.477 288.749,297.838 288.200 C 297.199 287.650,296.564 287.200,296.427 287.200 C 296.290 287.200,295.621 286.705,294.939 286.100 C 293.207 284.562,292.381 283.917,291.006 283.030 C 290.350 282.606,289.362 281.841,288.811 281.330 C 288.259 280.818,287.671 280.400,287.504 280.400 C 287.337 280.400,286.877 280.085,286.483 279.700 C 286.088 279.315,285.258 278.640,284.638 278.200 C 284.018 277.760,283.274 277.175,282.984 276.900 C 282.383 276.330,282.000 276.257,282.000 276.712 M155.425 283.556 C 156.511 284.632,157.470 285.446,157.556 285.367 C 157.756 285.180,154.133 281.600,153.744 281.600 C 153.582 281.600,154.339 282.480,155.425 283.556 M161.000 288.363 C 162.285 289.909,164.933 292.401,165.107 292.227 C 165.274 292.060,162.853 289.582,161.173 288.200 L 160.200 287.400 161.000 288.363 M168.800 295.351 C 168.800 295.780,172.857 299.677,173.076 299.458 C 173.176 299.357,172.601 298.674,171.799 297.938 C 170.996 297.202,169.993 296.251,169.570 295.825 C 169.146 295.398,168.800 295.185,168.800 295.351 M176.625 302.781 C 177.051 303.210,177.616 303.795,177.881 304.081 C 178.726 304.993,179.600 305.640,179.600 305.354 C 179.600 305.011,176.465 302.000,176.108 302.000 C 175.966 302.000,176.198 302.351,176.625 302.781 M183.838 309.256 C 185.512 311.137,186.774 312.293,186.956 312.111 C 187.061 312.005,186.333 311.127,185.337 310.160 C 183.458 308.333,182.507 307.760,183.838 309.256 M193.422 318.200 C 195.197 319.901,195.600 320.206,195.600 319.847 C 195.600 319.513,192.281 316.400,191.924 316.400 C 191.715 316.400,192.388 317.210,193.422 318.200 M198.884 323.019 C 199.168 323.360,199.637 323.855,199.928 324.119 C 200.218 324.384,200.848 325.022,201.328 325.537 C 201.807 326.052,202.560 326.663,203.000 326.894 C 203.440 327.125,202.692 326.208,201.337 324.857 C 199.081 322.607,197.643 321.529,198.884 323.019 M206.400 329.816 C 206.400 330.141,209.632 333.161,211.000 334.114 C 211.660 334.574,210.968 333.747,209.462 332.275 C 206.814 329.688,206.400 329.355,206.400 329.816 M214.000 336.618 C 214.000 336.881,217.958 340.800,218.224 340.800 C 218.679 340.800,216.963 338.807,216.320 338.590 C 215.947 338.463,215.535 338.025,215.405 337.616 C 215.198 336.964,214.000 336.113,214.000 336.618 M398.800 342.200 C 398.800 342.530,398.980 342.800,399.200 342.800 C 399.420 342.800,399.600 342.530,399.600 342.200 C 399.600 341.870,399.420 341.600,399.200 341.600 C 398.980 341.600,398.800 341.870,398.800 342.200 M221.200 343.192 C 221.200 343.399,221.472 343.801,221.804 344.084 C 222.137 344.368,223.127 345.296,224.004 346.147 C 224.882 346.998,225.600 347.537,225.600 347.345 C 225.600 347.153,224.610 346.056,223.400 344.906 C 222.190 343.757,221.200 342.986,221.200 343.192 M395.382 349.340 C 394.526 350.282,394.343 350.797,394.948 350.564 C 395.273 350.440,395.646 350.056,395.778 349.712 C 396.086 348.911,395.916 348.753,395.382 349.340 M229.600 351.031 C 229.600 351.377,232.879 354.395,233.800 354.896 C 234.240 355.135,233.557 354.312,232.282 353.066 C 230.041 350.875,229.600 350.540,229.600 351.031 M237.200 357.810 C 237.200 358.226,240.865 361.669,241.079 361.454 C 241.165 361.368,240.713 360.781,240.074 360.149 C 238.092 358.189,237.200 357.463,237.200 357.810 M243.200 363.169 C 243.200 363.389,243.469 363.801,243.797 364.084 C 244.126 364.368,245.374 365.545,246.571 366.700 C 247.768 367.855,248.895 368.799,249.074 368.798 C 249.253 368.797,248.770 368.208,248.000 367.489 C 247.230 366.770,245.835 365.414,244.900 364.475 C 243.965 363.537,243.200 362.949,243.200 363.169 M251.600 371.015 C 251.600 371.260,255.188 374.800,255.437 374.800 C 255.822 374.800,255.498 374.369,253.815 372.637 C 252.131 370.904,251.600 370.515,251.600 371.015 M260.999 379.814 C 262.488 381.252,263.789 382.345,263.891 382.243 C 264.124 382.009,259.126 377.205,258.647 377.202 C 258.453 377.201,259.511 378.376,260.999 379.814 M331.300 383.344 C 330.805 383.589,330.400 383.932,330.400 384.105 C 330.400 384.279,330.940 384.141,331.600 383.800 C 332.260 383.459,332.800 383.094,332.800 382.990 C 332.800 382.721,332.339 382.830,331.300 383.344 M266.400 384.549 C 266.950 385.132,267.627 385.831,267.904 386.104 C 270.730 388.883,271.600 389.637,271.600 389.308 C 271.600 388.842,267.803 385.076,266.400 384.150 L 265.400 383.490 266.400 384.549 M273.200 390.581 C 273.200 390.680,274.109 391.670,275.219 392.781 C 276.330 393.891,277.320 394.800,277.419 394.800 C 277.852 394.800,277.479 394.317,275.581 392.419 C 273.683 390.521,273.200 390.148,273.200 390.581 M289.000 399.200 C 289.136 399.420,289.676 399.600,290.200 399.600 C 290.724 399.600,291.264 399.420,291.400 399.200 C 291.547 398.961,291.063 398.800,290.200 398.800 C 289.337 398.800,288.853 398.961,289.000 399.200 M294.200 399.200 C 294.336 399.420,294.977 399.600,295.624 399.600 C 296.271 399.600,296.800 399.420,296.800 399.200 C 296.800 398.980,296.159 398.800,295.376 398.800 C 294.529 398.800,294.053 398.962,294.200 399.200 " stroke="none" fill="#1b77b1" fill-rule="evenodd"></path><path id="path2" d="M391.600 46.588 C 391.600 46.854,394.383 49.600,394.653 49.600 C 394.754 49.600,394.524 49.185,394.141 48.677 C 393.397 47.690,391.600 46.213,391.600 46.588 M96.800 137.663 C 97.464 138.358,98.126 138.808,98.270 138.663 C 98.415 138.518,98.323 138.400,98.067 138.400 C 97.810 138.400,97.600 138.136,97.600 137.814 C 97.600 137.492,97.252 137.042,96.826 136.814 C 95.540 136.126,95.534 136.338,96.800 137.663 M0.819 138.177 C 0.547 138.505,0.417 139.004,0.531 139.287 C 0.666 139.623,0.748 139.570,0.768 139.133 C 0.786 138.767,1.025 138.386,1.300 138.288 C 1.575 138.190,1.691 137.991,1.557 137.845 C 1.423 137.700,1.091 137.849,0.819 138.177 M99.364 139.400 L 99.615 140.400 51.088 140.400 C 0.857 140.400,1.600 140.377,1.600 141.956 C 1.600 142.406,1.750 142.362,2.211 141.776 C 2.724 141.125,2.804 141.108,2.711 141.674 C 2.650 142.044,2.722 142.314,2.870 142.274 C 3.220 142.178,5.267 145.192,5.394 145.989 C 5.447 146.325,5.776 146.549,6.125 146.487 C 6.721 146.381,7.492 147.312,7.545 148.200 C 7.558 148.420,7.935 148.658,8.384 148.728 C 8.904 148.809,9.211 149.172,9.232 149.728 C 9.251 150.269,9.347 150.387,9.485 150.039 C 9.649 149.626,9.858 149.731,10.281 150.439 C 10.706 151.151,10.790 151.192,10.603 150.600 C 10.371 149.866,10.420 149.875,11.196 150.705 C 11.661 151.203,11.914 151.816,11.759 152.067 C 11.584 152.349,11.654 152.414,11.942 152.236 C 12.225 152.061,12.681 152.430,13.104 153.175 C 13.487 153.850,14.115 154.504,14.500 154.628 C 14.885 154.752,15.200 155.032,15.200 155.251 C 15.200 155.469,15.408 155.519,15.662 155.362 C 15.930 155.196,16.016 155.251,15.866 155.493 C 15.725 155.722,15.859 156.117,16.166 156.371 C 16.591 156.724,16.771 156.711,16.930 156.317 C 17.061 155.988,17.148 156.055,17.168 156.500 C 17.186 156.885,17.425 157.203,17.700 157.207 C 17.975 157.210,18.920 158.026,19.800 159.020 C 22.954 162.580,23.993 163.600,24.469 163.600 C 24.735 163.600,26.251 164.950,27.838 166.600 C 29.425 168.250,31.011 169.600,31.362 169.600 C 31.713 169.600,32.000 169.870,32.000 170.200 C 32.000 170.530,32.258 170.800,32.573 170.800 C 32.888 170.800,33.257 171.151,33.394 171.580 C 33.530 172.008,33.983 172.467,34.400 172.600 C 34.817 172.733,35.267 173.183,35.400 173.600 C 35.533 174.017,35.975 174.465,36.384 174.595 C 36.792 174.724,37.231 175.105,37.360 175.441 C 37.491 175.780,37.800 175.923,38.059 175.764 C 38.318 175.604,38.417 175.650,38.282 175.867 C 38.061 176.225,39.300 177.600,39.845 177.600 C 39.974 177.600,41.524 179.037,43.290 180.793 C 45.055 182.549,46.685 183.871,46.912 183.731 C 47.150 183.584,47.203 183.672,47.036 183.941 C 46.874 184.203,47.032 184.514,47.400 184.655 C 47.757 184.792,49.851 186.681,52.053 188.852 C 54.255 191.024,56.302 192.800,56.601 192.800 C 56.901 192.800,57.257 193.151,57.394 193.580 C 57.530 194.008,57.983 194.467,58.400 194.600 C 58.817 194.733,59.267 195.183,59.400 195.600 C 59.533 196.017,59.983 196.467,60.400 196.600 C 60.817 196.733,61.270 197.192,61.406 197.620 C 61.543 198.049,61.822 198.423,62.027 198.450 C 62.232 198.478,62.587 198.523,62.815 198.550 C 63.043 198.578,63.358 198.800,63.515 199.044 C 63.672 199.288,64.376 199.783,65.080 200.144 C 65.784 200.505,66.504 201.025,66.680 201.300 C 66.856 201.575,67.810 202.506,68.800 203.368 C 70.718 205.039,75.996 209.871,84.789 218.007 C 87.765 220.761,91.199 223.911,92.419 225.007 C 104.038 235.441,113.455 244.190,117.661 248.461 C 120.445 251.287,122.837 253.600,122.978 253.600 C 123.309 253.600,124.037 254.227,126.001 256.200 C 126.876 257.080,127.754 257.955,127.952 258.145 C 129.707 259.829,130.599 260.600,130.793 260.600 C 130.920 260.600,132.412 261.950,134.109 263.600 C 137.453 266.850,138.053 267.392,138.478 267.545 C 138.631 267.600,140.300 269.153,142.186 270.998 C 144.073 272.842,145.963 274.461,146.387 274.596 C 146.812 274.731,147.267 275.183,147.400 275.600 C 147.533 276.017,147.983 276.467,148.400 276.600 C 148.817 276.733,149.270 277.192,149.406 277.620 C 149.543 278.049,149.820 278.400,150.024 278.400 C 150.227 278.400,150.875 278.940,151.463 279.600 C 152.051 280.260,152.783 280.800,153.090 280.800 C 153.396 280.800,153.536 280.980,153.400 281.200 C 153.264 281.420,153.359 281.600,153.610 281.600 C 153.862 281.600,155.405 282.950,157.039 284.600 C 158.673 286.250,160.162 287.600,160.348 287.600 C 160.535 287.600,162.516 289.396,164.752 291.592 C 166.988 293.787,168.906 295.583,169.016 295.583 C 169.527 295.583,175.600 301.572,175.600 302.075 C 175.600 302.280,175.779 302.337,175.997 302.202 C 176.215 302.067,177.838 303.406,179.603 305.178 C 181.367 306.950,182.972 308.400,183.169 308.400 C 183.366 308.400,184.360 309.210,185.379 310.200 C 186.397 311.190,187.110 312.000,186.961 312.000 C 186.813 312.000,187.211 312.405,187.846 312.899 C 188.481 313.393,189.381 314.203,189.846 314.699 C 190.311 315.195,190.907 315.600,191.169 315.600 C 191.432 315.600,191.536 315.780,191.400 316.000 C 191.264 316.220,191.426 316.400,191.761 316.400 C 192.557 316.400,194.043 318.006,193.724 318.522 C 193.588 318.743,193.673 318.802,193.914 318.653 C 194.155 318.504,194.588 318.665,194.876 319.010 C 195.164 319.356,195.637 319.855,195.928 320.119 C 196.218 320.384,196.835 321.005,197.300 321.500 C 197.764 321.995,198.315 322.400,198.523 322.400 C 198.732 322.400,200.311 323.795,202.034 325.500 C 205.362 328.795,206.250 329.600,206.558 329.600 C 206.663 329.600,208.336 331.163,210.275 333.073 C 212.214 334.984,214.067 336.594,214.393 336.652 C 214.719 336.709,215.052 336.956,215.134 337.201 C 215.215 337.445,215.540 337.860,215.855 338.122 C 216.171 338.385,217.366 339.545,218.512 340.700 C 219.658 341.855,220.738 342.800,220.912 342.800 C 221.086 342.800,222.869 344.414,224.874 346.387 C 226.879 348.360,228.700 349.862,228.921 349.725 C 229.150 349.584,229.200 349.677,229.036 349.941 C 228.873 350.206,229.041 350.517,229.426 350.665 C 229.799 350.808,231.249 352.054,232.649 353.434 C 234.050 354.814,236.042 356.631,237.076 357.471 C 238.110 358.312,239.768 359.855,240.761 360.900 C 241.753 361.945,242.717 362.800,242.902 362.800 C 243.087 362.800,245.048 364.600,247.259 366.800 C 249.469 369.000,251.438 370.800,251.633 370.800 C 251.829 370.800,253.423 372.240,255.176 374.000 C 256.929 375.760,258.508 377.200,258.686 377.200 C 259.274 377.200,265.952 383.914,265.673 384.225 C 265.523 384.392,265.618 384.403,265.884 384.251 C 266.346 383.985,268.999 386.046,270.453 387.800 C 272.126 389.819,272.725 390.400,273.131 390.400 C 273.372 390.400,274.708 391.525,276.100 392.900 C 279.631 396.387,279.998 396.552,284.000 396.456 C 292.284 396.257,296.745 393.075,299.951 385.081 C 300.483 383.756,300.571 338.437,300.100 308.966 C 299.831 292.109,299.780 295.058,299.600 337.967 C 299.442 375.682,299.295 385.769,298.900 385.900 C 298.625 385.992,298.400 386.390,298.400 386.784 C 298.400 387.179,298.130 387.726,297.800 388.000 C 297.470 388.274,297.200 388.661,297.200 388.860 C 297.200 389.766,292.876 393.600,291.853 393.600 C 291.714 393.600,291.600 392.970,291.600 392.200 C 291.600 391.430,291.780 390.800,292.000 390.800 C 292.241 390.800,292.400 389.133,292.400 386.600 C 292.400 384.067,292.559 382.400,292.800 382.400 C 293.054 382.400,293.200 379.267,293.200 373.800 L 293.200 365.200 294.194 365.200 L 295.188 365.200 295.294 352.900 C 295.400 340.649,295.403 340.600,296.262 340.477 L 297.124 340.354 297.263 315.677 C 297.410 289.572,297.391 288.800,296.614 288.800 C 296.342 288.800,295.590 288.305,294.944 287.700 C 293.572 286.415,291.090 284.298,288.964 282.600 C 288.138 281.940,286.819 280.860,286.035 280.200 C 285.250 279.540,284.372 278.820,284.084 278.600 C 283.797 278.380,283.128 277.795,282.599 277.300 C 282.070 276.805,281.522 276.400,281.381 276.400 C 280.868 276.400,279.235 274.899,279.480 274.653 C 279.619 274.514,279.442 274.400,279.085 274.400 C 278.728 274.400,277.986 273.950,277.436 273.400 C 276.886 272.850,276.248 272.400,276.018 272.400 C 275.788 272.400,275.600 272.232,275.600 272.027 C 275.600 271.822,275.237 271.539,274.794 271.398 C 274.351 271.257,274.084 270.988,274.200 270.800 C 274.316 270.612,274.046 270.341,273.598 270.199 C 273.151 270.058,272.214 269.419,271.515 268.781 C 270.817 268.143,270.166 267.700,270.070 267.797 C 269.974 267.893,269.396 267.438,268.787 266.786 C 268.178 266.134,267.508 265.600,267.299 265.600 C 267.090 265.600,266.307 265.054,265.559 264.386 C 264.812 263.719,263.801 262.819,263.314 262.386 C 262.827 261.954,262.250 261.600,262.032 261.600 C 261.815 261.600,261.186 261.150,260.636 260.600 C 260.086 260.050,259.475 259.600,259.278 259.600 C 259.080 259.600,258.366 259.105,257.690 258.500 C 255.020 256.108,253.885 255.200,253.568 255.200 C 253.386 255.200,252.787 254.795,252.237 254.300 C 250.558 252.787,248.505 251.200,248.228 251.200 C 248.083 251.200,247.480 250.750,246.887 250.200 C 246.293 249.650,245.652 249.200,245.462 249.200 C 245.271 249.200,244.761 248.750,244.329 248.200 C 243.896 247.650,243.316 247.200,243.041 247.200 C 242.765 247.200,242.117 246.750,241.600 246.200 C 241.083 245.650,240.465 245.200,240.225 245.200 C 239.986 245.200,239.452 244.750,239.039 244.200 C 238.626 243.650,238.031 243.200,237.717 243.200 C 237.403 243.200,236.552 242.570,235.826 241.800 C 235.100 241.030,234.345 240.400,234.149 240.400 C 233.952 240.400,233.307 239.950,232.713 239.400 C 232.120 238.850,231.466 238.400,231.260 238.400 C 231.054 238.400,230.782 238.130,230.655 237.800 C 230.529 237.470,230.139 237.200,229.789 237.200 C 229.439 237.200,229.264 237.020,229.400 236.800 C 229.536 236.580,229.410 236.400,229.120 236.400 C 228.829 236.400,228.107 235.950,227.513 235.400 C 226.920 234.850,226.290 234.400,226.113 234.400 C 225.937 234.400,225.307 233.950,224.713 233.400 C 224.120 232.850,223.460 232.400,223.246 232.400 C 223.033 232.400,222.504 231.950,222.071 231.400 C 221.639 230.850,221.129 230.400,220.938 230.400 C 220.748 230.400,220.107 229.950,219.513 229.400 C 218.920 228.850,218.247 228.400,218.017 228.400 C 217.788 228.400,217.600 228.190,217.600 227.933 C 217.600 227.677,217.486 227.580,217.347 227.719 C 217.208 227.858,216.596 227.438,215.987 226.786 C 215.378 226.134,214.690 225.600,214.459 225.600 C 214.229 225.600,213.896 225.358,213.720 225.063 C 213.544 224.768,212.860 224.187,212.200 223.773 C 211.540 223.359,210.684 222.672,210.297 222.246 C 209.911 221.820,209.490 221.577,209.361 221.706 C 209.232 221.834,208.527 221.368,207.794 220.670 C 205.364 218.356,204.433 217.600,204.012 217.600 C 203.782 217.600,203.203 217.150,202.725 216.600 C 202.247 216.050,201.645 215.600,201.387 215.600 C 201.129 215.600,200.307 215.062,199.559 214.405 C 196.329 211.565,195.859 211.200,195.436 211.200 C 195.191 211.200,194.652 210.750,194.239 210.200 C 193.826 209.650,193.286 209.200,193.040 209.200 C 192.793 209.200,192.107 208.750,191.513 208.200 C 190.920 207.650,190.329 207.200,190.200 207.200 C 190.071 207.200,189.480 206.750,188.887 206.200 C 188.293 205.650,187.647 205.200,187.450 205.200 C 187.253 205.200,186.675 204.750,186.165 204.200 C 185.655 203.650,185.082 203.200,184.891 203.200 C 184.700 203.200,184.153 202.750,183.675 202.200 C 183.197 201.650,182.534 201.200,182.203 201.200 C 181.871 201.200,181.600 201.032,181.600 200.827 C 181.600 200.622,181.195 200.327,180.700 200.171 C 179.988 199.947,166.397 190.063,165.600 189.189 C 165.490 189.068,162.520 186.822,159.000 184.196 C 155.480 181.570,152.251 179.102,151.825 178.711 C 151.398 178.320,150.931 178.000,150.786 178.000 C 150.641 178.000,150.090 177.643,149.561 177.207 C 148.385 176.237,148.203 176.098,146.200 174.621 C 145.320 173.973,144.510 173.339,144.400 173.212 C 144.290 173.085,143.665 172.640,143.010 172.223 C 141.669 171.367,141.151 170.962,139.858 169.759 C 139.361 169.297,138.764 168.847,138.532 168.759 C 138.300 168.672,137.532 168.150,136.825 167.600 C 136.118 167.050,134.608 165.882,133.470 165.005 C 132.331 164.128,131.162 163.183,130.871 162.905 C 130.581 162.627,130.210 162.400,130.047 162.400 C 129.884 162.400,129.391 162.064,128.950 161.654 C 128.510 161.244,127.036 160.148,125.675 159.219 C 124.314 158.290,123.200 157.378,123.200 157.192 C 123.200 157.006,122.872 156.750,122.471 156.622 C 122.069 156.495,121.394 156.076,120.971 155.692 C 120.547 155.308,119.688 154.665,119.062 154.262 C 118.436 153.860,117.626 153.008,117.262 152.368 C 116.898 151.728,116.410 151.204,116.177 151.203 C 115.588 151.199,113.179 149.157,113.380 148.832 C 113.471 148.686,113.182 148.539,112.739 148.505 C 112.295 148.472,111.612 148.075,111.219 147.622 C 110.827 147.170,110.316 146.800,110.084 146.800 C 109.852 146.800,109.108 146.246,108.431 145.569 C 107.754 144.892,107.200 144.478,107.200 144.648 C 107.200 144.818,106.615 144.390,105.900 143.697 C 105.185 143.004,104.465 142.429,104.300 142.418 C 104.135 142.408,103.820 142.400,103.600 142.400 C 103.380 142.400,103.200 142.142,103.200 141.827 C 103.200 141.512,102.840 141.140,102.400 141.000 C 101.960 140.860,101.600 140.591,101.600 140.401 C 101.600 140.211,101.195 139.998,100.700 139.928 C 100.099 139.842,99.839 139.567,99.918 139.100 C 99.982 138.715,99.828 138.400,99.574 138.400 C 99.282 138.400,99.205 138.767,99.364 139.400 M399.654 336.800 C 399.619 337.130,399.477 337.850,399.340 338.400 C 399.148 339.172,399.202 339.297,399.577 338.949 C 399.844 338.701,399.985 337.981,399.891 337.349 C 399.797 336.717,399.690 336.470,399.654 336.800 M398.800 341.000 C 398.800 341.330,398.980 341.600,399.200 341.600 C 399.420 341.600,399.600 341.330,399.600 341.000 C 399.600 340.670,399.420 340.400,399.200 340.400 C 398.980 340.400,398.800 340.670,398.800 341.000 M398.000 343.414 C 398.000 343.752,397.703 344.481,397.341 345.035 C 396.844 345.792,396.795 346.155,397.141 346.501 C 397.486 346.846,397.600 346.687,397.600 345.856 C 397.600 345.223,397.770 344.858,398.000 345.000 C 398.220 345.136,398.400 344.981,398.400 344.656 C 398.400 344.331,398.509 343.781,398.643 343.433 C 398.776 343.085,398.686 342.800,398.443 342.800 C 398.199 342.800,398.000 343.076,398.000 343.414 M395.662 348.089 C 394.779 349.484,394.815 350.042,395.728 349.129 C 396.303 348.554,397.010 346.800,396.666 346.800 C 396.563 346.800,396.111 347.380,395.662 348.089 M392.458 351.825 C 390.570 353.748,391.023 354.281,393.026 352.494 C 394.210 351.437,395.077 349.973,394.487 350.025 C 394.329 350.039,393.416 350.849,392.458 351.825 M388.457 355.208 C 386.268 356.646,386.118 356.800,386.905 356.800 C 387.256 356.800,387.813 356.530,388.143 356.200 C 388.473 355.870,388.853 355.600,388.988 355.600 C 389.123 355.600,389.620 355.240,390.092 354.800 C 391.314 353.662,390.501 353.865,388.457 355.208 M383.500 357.747 C 382.357 358.170,382.012 358.800,382.924 358.800 C 383.547 358.800,385.085 357.736,384.799 357.503 C 384.690 357.413,384.105 357.523,383.500 357.747 M379.665 359.592 C 377.796 360.635,377.608 360.913,379.001 360.571 C 379.660 360.409,380.260 360.124,380.333 359.938 C 380.407 359.752,380.722 359.600,381.033 359.600 C 381.345 359.600,381.600 359.420,381.600 359.200 C 381.600 358.648,381.215 358.726,379.665 359.592 M376.224 361.413 C 375.796 361.736,375.121 362.000,374.724 362.000 C 374.326 362.000,374.000 362.183,374.000 362.408 C 374.000 362.883,376.130 362.455,376.333 361.938 C 376.407 361.752,376.722 361.600,377.033 361.600 C 377.345 361.600,377.600 361.420,377.600 361.200 C 377.600 360.648,377.141 360.719,376.224 361.413 M372.619 363.169 C 372.494 363.372,371.853 363.657,371.195 363.801 C 370.538 363.945,370.000 364.233,370.000 364.439 C 370.000 364.887,372.140 364.427,372.333 363.938 C 372.407 363.752,372.722 363.600,373.033 363.600 C 373.345 363.600,373.600 363.420,373.600 363.200 C 373.600 362.697,372.924 362.676,372.619 363.169 M368.400 365.200 C 368.400 365.420,368.265 365.571,368.100 365.535 C 367.540 365.415,365.397 366.494,365.855 366.666 C 366.403 366.871,369.600 365.539,369.600 365.106 C 369.600 364.938,369.330 364.800,369.000 364.800 C 368.670 364.800,368.400 364.980,368.400 365.200 M362.864 367.664 C 361.909 368.103,361.213 368.546,361.317 368.650 C 361.618 368.952,363.600 368.350,363.600 367.957 C 363.600 367.760,363.960 367.600,364.400 367.600 C 364.840 367.600,365.200 367.420,365.200 367.200 C 365.200 366.667,364.910 366.725,362.864 367.664 M358.868 369.614 C 357.010 370.613,356.799 370.915,358.201 370.571 C 358.860 370.409,359.460 370.124,359.533 369.938 C 359.607 369.752,359.922 369.600,360.233 369.600 C 360.545 369.600,360.800 369.420,360.800 369.200 C 360.800 368.679,360.479 368.748,358.868 369.614 M355.500 371.076 C 355.115 371.176,354.800 371.425,354.800 371.629 C 354.800 371.833,354.440 372.000,354.000 372.000 C 353.560 372.000,353.200 372.183,353.200 372.408 C 353.200 372.883,355.330 372.455,355.533 371.938 C 355.607 371.752,355.922 371.600,356.233 371.600 C 356.545 371.600,356.800 371.420,356.800 371.200 C 356.800 370.784,356.665 370.771,355.500 371.076 M350.100 373.744 C 349.321 374.130,348.860 374.800,349.374 374.800 C 350.005 374.800,351.600 373.947,351.600 373.610 C 351.600 373.122,351.302 373.149,350.100 373.744 M343.600 376.889 C 338.858 379.206,338.994 379.127,339.274 379.407 C 339.388 379.521,340.003 379.342,340.640 379.010 C 341.278 378.677,342.025 378.404,342.300 378.402 C 342.575 378.401,342.800 378.220,342.800 378.000 C 342.800 377.780,343.160 377.600,343.600 377.600 C 344.040 377.600,344.400 377.434,344.400 377.232 C 344.400 377.029,344.940 376.745,345.600 376.600 C 346.260 376.455,346.800 376.171,346.800 375.968 C 346.800 375.766,347.261 375.600,347.824 375.600 C 348.404 375.600,348.740 375.427,348.600 375.200 C 348.244 374.624,348.211 374.636,343.600 376.889 M337.470 379.879 C 336.131 380.582,336.279 380.946,337.753 380.576 C 338.329 380.432,338.800 380.063,338.800 379.757 C 338.800 379.450,338.755 379.219,338.700 379.242 C 338.645 379.266,338.091 379.552,337.470 379.879 M333.300 381.744 C 332.805 381.989,332.400 382.348,332.400 382.542 C 332.400 382.735,332.805 382.785,333.300 382.652 C 333.795 382.519,334.335 382.408,334.500 382.405 C 334.665 382.402,334.800 382.130,334.800 381.800 C 334.800 381.121,334.576 381.112,333.300 381.744 M329.000 383.944 C 327.680 384.560,326.015 385.319,325.300 385.630 C 324.194 386.111,323.545 386.800,324.197 386.800 C 324.711 386.800,327.600 385.377,327.600 385.124 C 327.600 384.966,328.230 384.718,329.000 384.574 C 329.770 384.429,330.400 384.151,330.400 383.955 C 330.400 383.760,330.659 383.600,330.976 383.600 C 331.293 383.600,331.664 383.420,331.800 383.200 C 332.185 382.577,331.591 382.734,329.000 383.944 M321.500 387.515 C 320.675 387.885,320.000 388.338,320.000 388.521 C 320.000 388.939,321.752 388.418,321.933 387.947 C 322.007 387.756,322.412 387.600,322.833 387.600 C 323.255 387.600,323.600 387.420,323.600 387.200 C 323.600 386.668,323.278 386.716,321.500 387.515 M317.600 389.391 C 315.954 390.328,309.615 393.200,309.192 393.200 C 308.977 393.200,308.800 393.380,308.800 393.600 C 308.800 393.820,308.541 394.000,308.224 394.000 C 307.907 394.000,307.532 394.187,307.390 394.416 C 307.221 394.689,307.522 394.737,308.266 394.554 C 308.890 394.401,309.460 394.124,309.533 393.938 C 309.607 393.752,309.922 393.600,310.233 393.600 C 310.545 393.600,310.800 393.440,310.800 393.245 C 310.800 393.049,311.430 392.771,312.200 392.626 C 312.970 392.482,313.600 392.192,313.600 391.982 C 313.600 391.772,314.061 391.600,314.624 391.600 C 315.187 391.600,315.548 391.440,315.427 391.244 C 315.306 391.048,315.835 390.770,316.604 390.626 C 317.372 390.482,318.000 390.192,318.000 389.982 C 318.000 389.772,318.360 389.600,318.800 389.600 C 319.240 389.600,319.600 389.420,319.600 389.200 C 319.600 388.641,318.779 388.719,317.600 389.391 M304.700 395.515 C 303.875 395.885,303.200 396.329,303.200 396.502 C 303.200 396.906,305.357 396.385,305.533 395.938 C 305.607 395.752,305.922 395.600,306.233 395.600 C 306.545 395.600,306.800 395.420,306.800 395.200 C 306.800 394.668,306.478 394.716,304.700 395.515 M282.400 397.168 C 282.400 397.406,282.835 397.600,283.367 397.600 C 283.898 397.600,284.393 397.764,284.467 397.964 C 284.540 398.164,285.481 398.459,286.557 398.618 C 287.976 398.828,288.437 398.783,288.233 398.454 C 288.079 398.204,287.459 398.000,286.856 398.000 C 286.253 398.000,285.589 397.839,285.380 397.642 C 284.756 397.055,282.400 396.680,282.400 397.168 M301.000 397.085 C 300.560 397.191,300.029 397.440,299.820 397.639 C 299.611 397.837,298.947 398.000,298.344 398.000 C 297.741 398.000,297.127 398.194,296.981 398.431 C 296.796 398.730,297.307 398.775,298.657 398.576 C 299.726 398.419,300.660 398.135,300.733 397.945 C 300.807 397.755,301.201 397.600,301.610 397.600 C 302.018 397.600,302.464 397.420,302.600 397.200 C 302.856 396.787,302.383 396.753,301.000 397.085 M292.800 398.688 C 291.032 399.005,290.937 399.600,292.653 399.600 C 293.821 399.600,294.267 399.434,294.267 399.000 C 294.267 398.670,294.162 398.425,294.033 398.454 C 293.905 398.484,293.350 398.590,292.800 398.688 " stroke="none" fill="#0e86d1" fill-rule="evenodd"></path><path id="path3" d="M286.200 1.567 C 284.147 2.094,283.200 2.482,283.200 2.796 C 283.200 2.962,282.503 3.209,281.652 3.345 C 280.217 3.575,278.825 4.558,279.285 5.018 C 279.394 5.128,280.773 4.908,282.348 4.530 C 289.330 2.854,296.846 7.116,299.150 14.058 C 299.992 16.593,299.994 16.734,299.897 63.200 C 299.760 129.069,299.963 171.323,300.419 171.779 C 300.629 171.989,300.800 173.384,300.800 174.880 L 300.800 177.600 349.936 177.600 L 399.071 177.600 399.342 120.700 C 399.605 65.478,399.532 60.353,398.444 57.800 C 397.067 54.566,395.671 51.965,394.580 50.600 C 392.706 48.255,390.585 46.000,390.255 46.000 C 390.096 46.000,389.608 45.666,389.170 45.258 C 388.732 44.850,387.661 44.175,386.791 43.758 C 385.921 43.341,385.207 42.879,385.205 42.732 C 385.202 42.584,384.662 42.345,384.005 42.201 C 383.347 42.057,382.706 41.772,382.581 41.569 C 382.455 41.366,382.003 41.200,381.576 41.200 C 381.149 41.200,380.800 41.020,380.800 40.800 C 380.800 40.580,380.602 40.400,380.360 40.400 C 379.845 40.400,377.092 39.156,376.800 38.792 C 376.690 38.654,376.240 38.390,375.800 38.205 C 375.360 38.020,374.910 37.829,374.800 37.781 C 374.690 37.732,374.195 37.561,373.700 37.400 C 373.205 37.238,372.800 36.948,372.800 36.753 C 372.800 36.559,372.440 36.400,372.000 36.400 C 371.560 36.400,371.200 36.226,371.200 36.013 C 371.200 35.799,370.930 35.729,370.600 35.855 C 370.270 35.982,370.000 35.886,370.000 35.643 C 370.000 35.399,369.730 35.200,369.400 35.200 C 369.070 35.200,368.800 35.020,368.800 34.800 C 368.800 34.580,368.440 34.400,368.000 34.400 C 367.560 34.400,367.200 34.209,367.200 33.976 C 367.200 33.743,367.045 33.648,366.856 33.765 C 366.448 34.018,364.408 33.132,364.403 32.700 C 364.401 32.535,364.141 32.400,363.824 32.400 C 363.507 32.400,362.207 31.860,360.935 31.200 C 359.663 30.540,358.392 30.000,358.111 30.000 C 357.830 30.000,357.600 29.820,357.600 29.600 C 357.600 29.380,357.240 29.200,356.800 29.200 C 356.360 29.200,356.000 29.020,356.000 28.800 C 356.000 28.580,355.821 28.400,355.603 28.400 C 354.920 28.400,352.000 27.027,352.000 26.706 C 352.000 26.538,351.741 26.400,351.424 26.400 C 351.107 26.400,349.887 25.905,348.713 25.300 C 347.538 24.695,345.907 23.941,345.089 23.625 C 344.270 23.309,343.600 22.904,343.600 22.725 C 343.600 22.546,343.240 22.400,342.800 22.400 C 342.360 22.400,342.000 22.220,342.000 22.000 C 342.000 21.780,341.802 21.600,341.560 21.600 C 340.936 21.600,338.250 20.314,337.945 19.870 C 337.804 19.665,337.489 19.621,337.245 19.772 C 337.000 19.924,336.800 19.857,336.800 19.624 C 336.800 19.391,336.440 19.200,336.000 19.200 C 335.560 19.200,335.200 19.020,335.200 18.800 C 335.200 18.580,334.930 18.400,334.600 18.400 C 334.270 18.400,334.000 18.209,334.000 17.976 C 334.000 17.743,333.845 17.648,333.656 17.765 C 333.248 18.018,331.208 17.132,331.203 16.700 C 331.201 16.535,330.874 16.400,330.476 16.400 C 330.079 16.400,329.404 16.136,328.976 15.813 C 328.549 15.490,327.885 15.220,327.500 15.213 C 327.115 15.206,326.800 15.020,326.800 14.800 C 326.800 14.580,326.602 14.400,326.360 14.400 C 325.845 14.400,323.092 13.156,322.800 12.792 C 322.690 12.654,322.240 12.390,321.800 12.205 C 321.360 12.020,320.910 11.829,320.800 11.781 C 320.690 11.732,320.195 11.561,319.700 11.400 C 319.205 11.238,318.800 10.948,318.800 10.753 C 318.800 10.559,318.440 10.400,318.000 10.400 C 317.560 10.400,317.200 10.220,317.200 10.000 C 317.200 9.780,317.065 9.638,316.900 9.684 C 316.587 9.771,313.549 8.406,313.200 8.021 C 313.090 7.899,312.820 7.800,312.600 7.800 C 312.019 7.800,305.047 4.312,304.745 3.871 C 304.604 3.665,304.289 3.621,304.045 3.772 C 303.800 3.924,303.600 3.857,303.600 3.624 C 303.600 3.391,303.240 3.200,302.800 3.200 C 302.360 3.200,302.000 3.020,302.000 2.800 C 302.000 2.580,301.565 2.400,301.033 2.400 C 300.502 2.400,299.995 2.184,299.907 1.920 C 299.720 1.359,288.171 1.061,286.200 1.567 " stroke="none" fill="#49b1f3" fill-rule="evenodd"></path><path id="path4" d="M289.600 0.800 C 289.184 1.069,289.959 1.190,292.124 1.194 C 294.106 1.198,295.157 1.054,295.000 0.800 C 294.684 0.288,290.392 0.288,289.600 0.800 M281.800 4.620 C 280.700 4.922,279.350 5.216,278.800 5.273 C 277.643 5.394,275.485 6.957,272.551 9.800 C 270.037 12.235,265.367 16.521,262.422 19.096 C 261.224 20.143,259.327 21.900,258.206 23.000 C 257.085 24.100,255.455 25.607,254.584 26.349 C 252.610 28.030,246.789 33.357,243.162 36.800 C 241.657 38.230,239.843 39.850,239.133 40.400 C 238.422 40.950,236.618 42.570,235.124 44.000 C 233.630 45.430,231.486 47.410,230.359 48.400 C 229.232 49.390,227.454 51.010,226.407 52.000 C 225.359 52.990,223.118 55.060,221.427 56.600 C 219.735 58.140,217.760 59.940,217.037 60.600 C 211.715 65.462,208.453 68.438,206.858 69.886 C 203.871 72.597,200.185 76.010,197.292 78.742 C 195.811 80.141,193.520 82.205,192.200 83.330 C 190.880 84.454,189.167 86.010,188.393 86.787 C 187.619 87.564,185.554 89.460,183.805 91.000 C 182.055 92.540,179.954 94.430,179.136 95.200 C 177.847 96.413,175.547 98.515,171.257 102.400 C 170.250 103.312,163.876 109.174,160.527 112.269 C 159.772 112.966,157.791 114.766,156.124 116.269 C 154.457 117.771,152.160 119.900,151.019 121.000 C 149.878 122.100,148.147 123.699,147.172 124.554 C 138.565 132.101,133.098 137.438,134.300 137.121 C 134.937 136.953,136.574 137.738,137.484 138.648 C 138.008 139.172,138.698 139.600,139.018 139.600 C 139.338 139.600,139.600 139.780,139.600 140.000 C 139.600 140.220,140.320 140.400,141.200 140.400 C 142.080 140.400,142.800 140.568,142.800 140.773 C 142.800 140.978,143.190 141.270,143.666 141.421 C 144.142 141.572,144.961 142.124,145.484 142.648 C 146.008 143.172,146.655 143.600,146.923 143.600 C 147.191 143.600,147.748 144.050,148.161 144.600 C 148.574 145.150,149.247 145.600,149.656 145.600 C 150.065 145.600,150.400 145.780,150.400 146.000 C 150.400 146.265,167.207 146.400,200.020 146.400 L 249.639 146.400 252.020 144.721 C 253.329 143.798,254.400 142.898,254.400 142.721 C 254.400 142.545,254.592 142.400,254.827 142.400 C 255.176 142.400,262.916 136.735,263.600 135.979 C 263.710 135.857,264.430 135.374,265.200 134.905 C 265.970 134.437,266.960 133.721,267.400 133.315 C 267.840 132.909,269.092 131.952,270.182 131.188 C 271.273 130.425,272.533 129.500,272.982 129.133 C 276.075 126.609,280.446 123.200,280.589 123.200 C 280.684 123.200,281.373 122.570,282.121 121.800 C 282.869 121.030,283.596 120.400,283.736 120.400 C 284.454 120.400,285.600 118.890,285.600 117.944 C 285.600 116.458,285.982 115.600,286.643 115.600 C 287.073 115.600,287.200 114.869,287.200 112.400 C 287.200 109.253,287.217 109.200,288.200 109.200 C 289.178 109.200,289.200 109.133,289.200 106.200 L 289.200 103.200 290.400 103.200 L 291.600 103.200 291.600 100.424 C 291.600 98.897,291.780 97.536,292.000 97.400 C 292.220 97.264,292.400 95.734,292.400 94.000 C 292.400 92.266,292.580 90.736,292.800 90.600 C 293.020 90.464,293.200 89.013,293.200 87.376 C 293.200 84.481,293.227 84.400,294.184 84.400 C 295.140 84.400,295.171 84.307,295.284 81.100 C 295.399 77.830,295.410 77.799,296.500 77.673 C 297.590 77.548,297.600 77.520,297.600 74.573 C 297.600 71.867,297.672 71.600,298.400 71.600 C 299.162 71.600,299.205 71.301,299.296 65.300 C 299.348 61.835,299.485 70.520,299.600 84.600 C 299.780 106.714,299.822 103.825,299.904 63.378 L 300.000 16.555 299.146 14.026 C 296.737 6.893,288.936 2.663,281.800 4.620 M34.600 96.800 C 34.464 97.020,33.994 97.200,33.555 97.200 C 32.612 97.200,28.462 99.387,27.599 100.338 C 27.269 100.702,25.829 102.019,24.399 103.263 C 22.970 104.508,20.878 106.398,19.751 107.463 C 18.624 108.529,16.497 110.480,15.025 111.800 C 13.552 113.120,11.543 114.920,10.561 115.800 C 4.535 121.200,1.200 125.059,1.200 126.632 C 1.200 126.945,1.031 127.200,0.825 127.200 C 0.410 127.200,0.426 127.083,0.142 132.342 C -0.008 135.145,0.059 136.011,0.410 135.794 C 0.763 135.576,0.772 135.705,0.445 136.316 C 0.122 136.919,0.148 137.471,0.546 138.464 C 0.841 139.199,1.204 140.145,1.354 140.567 C 1.561 141.151,1.737 141.223,2.093 140.867 C 2.444 140.516,14.643 140.400,51.123 140.400 C 95.241 140.400,99.663 140.342,99.443 139.767 C 99.309 139.419,99.200 138.896,99.200 138.605 C 99.200 137.906,95.195 135.036,94.308 135.100 C 93.927 135.127,93.513 134.983,93.387 134.779 C 93.261 134.576,93.440 134.517,93.784 134.649 C 94.238 134.823,94.341 134.713,94.162 134.245 C 94.026 133.890,93.690 133.600,93.417 133.600 C 93.143 133.600,92.346 133.053,91.647 132.384 C 90.947 131.716,90.200 131.276,89.987 131.408 C 89.774 131.540,89.600 131.405,89.600 131.110 C 89.600 130.814,89.028 130.235,88.330 129.822 C 86.934 128.997,86.211 128.445,83.989 126.500 C 83.172 125.785,82.300 125.200,82.052 125.200 C 81.803 125.200,81.600 125.059,81.600 124.886 C 81.600 124.714,81.015 124.231,80.300 123.815 C 79.585 123.398,78.634 122.639,78.187 122.128 C 77.740 121.618,77.187 121.200,76.957 121.200 C 76.727 121.200,76.117 120.750,75.600 120.200 C 75.083 119.650,74.504 119.200,74.313 119.200 C 74.122 119.200,73.480 118.750,72.887 118.200 C 72.293 117.650,71.652 117.200,71.462 117.200 C 71.271 117.200,70.761 116.750,70.329 116.200 C 69.896 115.650,69.285 115.200,68.971 115.200 C 68.657 115.200,68.399 115.065,68.397 114.900 C 68.396 114.735,67.770 114.174,67.006 113.654 C 66.242 113.134,65.263 112.414,64.831 112.054 C 64.398 111.694,63.463 110.950,62.752 110.400 C 62.041 109.850,61.234 109.175,60.958 108.900 C 60.683 108.625,60.307 108.400,60.124 108.400 C 59.942 108.400,59.307 107.950,58.713 107.400 C 58.120 106.850,57.528 106.400,57.398 106.400 C 57.268 106.400,56.745 105.950,56.235 105.400 C 55.725 104.850,55.186 104.400,55.037 104.400 C 54.888 104.400,54.498 104.175,54.169 103.900 C 52.887 102.826,52.526 102.545,50.326 100.906 C 47.188 98.570,44.637 97.200,43.423 97.200 C 42.860 97.200,42.400 97.020,42.400 96.800 C 42.400 96.562,40.875 96.400,38.624 96.400 C 36.537 96.400,34.737 96.579,34.600 96.800 M96.826 136.814 C 97.252 137.042,97.600 137.492,97.600 137.814 C 97.600 138.136,97.810 138.400,98.067 138.400 C 98.323 138.400,98.415 138.518,98.270 138.663 C 98.126 138.808,97.464 138.358,96.800 137.663 C 95.534 136.338,95.540 136.126,96.826 136.814 M99.800 139.600 C 99.936 139.820,100.317 140.000,100.647 140.000 C 100.977 140.000,101.136 139.820,101.000 139.600 C 100.864 139.380,100.483 139.200,100.153 139.200 C 99.823 139.200,99.664 139.380,99.800 139.600 M2.205 141.592 C 1.910 142.070,2.679 143.600,3.214 143.600 C 3.426 143.600,3.600 143.804,3.600 144.053 C 3.600 144.462,5.089 146.000,5.485 146.000 C 5.834 146.000,3.352 142.390,2.929 142.282 C 2.751 142.237,2.657 141.975,2.720 141.700 C 2.857 141.105,2.546 141.039,2.205 141.592 M103.200 141.708 C 103.200 142.042,103.470 142.418,103.800 142.545 C 104.130 142.671,104.400 142.623,104.400 142.436 C 104.400 142.250,104.130 141.874,103.800 141.600 C 103.312 141.195,103.200 141.215,103.200 141.708 M104.800 142.522 C 104.800 142.592,105.363 143.179,106.050 143.825 C 106.925 144.648,107.147 144.748,106.791 144.159 C 106.351 143.433,104.800 142.157,104.800 142.522 M6.243 146.969 C 6.364 147.282,6.722 147.638,7.040 147.760 C 7.504 147.938,7.535 147.826,7.195 147.191 C 6.713 146.290,5.911 146.103,6.243 146.969 M117.200 152.338 C 117.200 152.862,120.772 155.778,122.300 156.502 C 122.795 156.736,123.200 157.064,123.200 157.229 C 123.200 157.394,124.314 158.290,125.675 159.219 C 127.036 160.148,128.510 161.244,128.950 161.654 C 129.391 162.064,129.884 162.400,130.047 162.400 C 130.210 162.400,130.581 162.627,130.871 162.905 C 131.162 163.183,132.331 164.128,133.470 165.005 C 134.608 165.882,136.118 167.050,136.825 167.600 C 137.532 168.150,138.310 168.666,138.555 168.747 C 139.473 169.050,137.220 167.172,131.400 162.784 C 128.100 160.296,123.555 156.840,121.300 155.104 C 119.045 153.368,117.200 152.123,117.200 152.338 M139.200 169.104 C 139.200 169.280,139.577 169.688,140.037 170.012 C 140.498 170.335,141.353 171.005,141.937 171.500 C 142.522 171.994,143.122 172.399,143.271 172.400 C 143.421 172.400,143.781 172.632,144.071 172.914 C 144.362 173.197,145.320 173.962,146.200 174.614 C 148.237 176.125,148.404 176.253,149.561 177.207 C 150.614 178.075,150.981 178.216,150.604 177.607 C 150.206 176.963,139.200 168.757,139.200 169.104 M152.411 179.077 C 152.421 179.406,157.200 182.944,157.200 182.622 C 157.200 182.526,156.120 181.616,154.800 180.600 C 153.480 179.584,152.405 178.899,152.411 179.077 M157.600 182.953 C 157.600 183.063,158.680 183.984,160.000 185.000 C 161.320 186.016,162.400 186.757,162.400 186.647 C 162.400 186.537,161.320 185.616,160.000 184.600 C 158.680 183.584,157.600 182.843,157.600 182.953 M172.400 194.133 C 172.400 194.243,173.120 194.903,174.000 195.600 C 174.880 196.297,175.600 196.777,175.600 196.667 C 175.600 196.557,174.880 195.897,174.000 195.200 C 173.120 194.503,172.400 194.023,172.400 194.133 M70.000 204.525 C 70.000 204.594,70.585 205.179,71.300 205.825 L 72.600 207.000 71.425 205.700 C 70.330 204.488,70.000 204.216,70.000 204.525 " stroke="none" fill="#2884c1" fill-rule="evenodd"></path></g></svg>